<svg width="1199" height="1200" viewBox="0 0 1199 1200" fill="none" xmlns="http://www.w3.org/2000/svg">
<path d="M904.335 600.029L1191.36 312.754C1196.02 308.094 1198.64 301.76 1198.64 295.166C1198.64 288.572 1196.02 282.239 1191.36 277.579L921.908 7.89153C917.251 3.22536 910.923 0.601532 904.335 0.601532C897.747 0.601532 891.419 3.22536 886.763 7.89153L599.737 295.166L599.107 294.536L312.082 7.29C307.425 2.62383 301.098 0 294.509 0C287.921 0 281.593 2.62383 276.937 7.29L7.48369 276.977C2.82156 281.638 0.200012 287.971 0.200012 294.565C0.200012 301.159 2.82156 307.492 7.48369 312.152L295.11 600.029L7.48369 887.905C2.82156 892.565 0.200012 898.899 0.200012 905.493C0.200012 912.087 2.82156 918.42 7.48369 923.08L276.937 1192.71C281.593 1197.38 287.921 1200 294.509 1200C301.098 1200 307.425 1197.38 312.082 1192.71L515.109 989.507C515.109 989.507 521.663 864.846 375.417 680.434L599.68 904.862L886.763 1192.17C891.419 1196.83 897.747 1199.46 904.335 1199.46C910.923 1199.46 917.251 1196.83 921.908 1192.17L1191.36 922.479C1196.02 917.818 1198.64 911.485 1198.64 904.891C1198.64 898.297 1196.02 891.964 1191.36 887.303L904.335 600.029Z" fill="black"/>
</svg>
