<svg width="100" height="30" viewBox="0 0 100 30" fill="none" xmlns="http://www.w3.org/2000/svg">
<path fill-rule="evenodd" clip-rule="evenodd" d="M22.5654 14.9827L7.7886 0.205877C7.54763 -0.0350969 7.15174 -0.0350969 6.91077 0.205877L0.18073 6.93592C-0.0602433 7.17689 -0.0602433 7.57278 0.18073 7.81375L7.3669 14.9999L0.18073 22.1861C-0.0602433 22.4271 -0.0602433 22.823 0.18073 23.0639L6.91077 29.794C7.15174 30.0349 7.54763 30.0349 7.7886 29.794L22.5654 15.0171L22.5482 14.9999L22.5654 14.9827Z" fill="#FF9600"/>
<path fill-rule="evenodd" clip-rule="evenodd" d="M14.9741 22.6079L7.36621 15L22.143 0.22321C22.384 -0.0177629 22.7799 -0.0177629 23.0209 0.22321L29.7509 6.95325C29.9919 7.19423 29.9919 7.59011 29.7509 7.83108L22.582 15L29.7509 22.169C29.9919 22.41 29.9919 22.8059 29.7509 23.0468L23.0209 29.7769C22.7799 30.0178 22.384 30.0178 22.143 29.7769L14.9741 22.6079Z" fill="#0089BD"/>
<path fill-rule="evenodd" clip-rule="evenodd" d="M7.35791 15L14.9658 22.6079L12.8487 24.725C12.8573 24.725 12.9519 20.7489 7.35791 15Z" fill="#BF7000"/>
<path fill-rule="evenodd" clip-rule="evenodd" d="M93.2913 15L99.9266 3.94106C100.073 3.69148 99.9955 3.36445 99.7459 3.21814C99.6599 3.1665 99.5738 3.14069 99.4705 3.14069H91.2172C91.0278 3.14069 90.8557 3.23535 90.7697 3.39887L88.5493 7.09093L86.3289 3.39027C86.2342 3.22675 86.0621 3.13208 85.8813 3.13208H77.628C77.3354 3.13208 77.103 3.36445 77.103 3.65706C77.103 3.75173 77.1289 3.84639 77.1805 3.93246L83.8159 14.9914L77.9464 24.7767L75.2183 19.1482C76.4662 18.4855 77.5075 17.4786 78.2046 16.2479C78.9017 15.0172 79.2546 13.5198 79.2546 11.7555C79.2546 8.94987 78.394 6.81553 76.6727 5.34387C74.9515 3.87221 72.6278 3.14069 69.6931 3.14069H58.8493C58.5395 3.14069 58.2813 3.39027 58.2813 3.70869V7.87409C57.8682 6.90159 57.2313 6.04097 56.431 5.35248C54.7097 3.88082 52.3775 3.14929 49.4427 3.14929H38.6076C38.2977 3.14929 38.0396 3.39887 38.0396 3.7173V26.2913C38.0396 26.6012 38.2891 26.8594 38.6076 26.8594H45.5183C45.8281 26.8594 46.0863 26.6098 46.0863 26.2913V20.3789H49.4427C52.3861 20.3789 54.7097 19.6474 56.431 18.1757C57.24 17.4872 57.8682 16.6266 58.2899 15.6541V26.2913C58.2899 26.6012 58.5395 26.8594 58.8579 26.8594H65.631C65.9408 26.8594 66.199 26.6098 66.199 26.2913V20.3789H67.7223L70.6398 26.4376C70.7603 26.6958 71.0271 26.8594 71.3111 26.8594H85.8813C86.0707 26.8594 86.2428 26.7647 86.3289 26.6012L88.5493 22.9091L90.7697 26.6012C90.8643 26.7647 91.0364 26.8594 91.2172 26.8594H99.4705C99.7631 26.8594 99.9955 26.627 99.9955 26.3344C99.9955 26.2397 99.9697 26.145 99.918 26.059L93.2913 15ZM47.8166 14.3717H46.0867V9.14772H47.8166C49.8735 9.14772 50.9062 10.0169 50.9062 11.764C50.8976 13.5025 49.8735 14.3717 47.8166 14.3717ZM67.9882 14.3717H66.1895V9.14772H67.9882C70.0451 9.14772 71.0778 10.0169 71.0778 11.764C71.0778 13.5111 70.0451 14.3717 67.9882 14.3717Z" fill="#0089BD"/>
</svg>
