<svg width="252" height="92" viewBox="0 0 252 92" fill="none" xmlns="http://www.w3.org/2000/svg">
<path d="M37.8254 59.1775C37.394 61.2666 36.2586 63.0832 35.4411 65.0133C32.3302 72.5069 28.6515 79.7279 26.0402 87.4258C25.6087 88.6747 25.3589 89.969 25.041 91.2634" stroke="black" stroke-width="0.75" stroke-linecap="round" stroke-linejoin="round"/>
<path d="M133.197 27.5441C134.9 25.7956 136.739 24.1834 138.329 22.3213C140.44 19.8462 142.053 17.0305 143.824 14.351C144.391 13.4881 144.619 12.4435 143.824 11.5352C143.074 10.6723 142.143 10.7859 141.144 11.0811C135.831 12.6933 131.107 15.5545 126.407 18.3702C119.504 22.5257 112.964 27.2035 106.833 32.4262C101.224 37.1948 95.7517 42.1451 91.1648 47.981C88.7123 51.1373 87.1228 54.6797 86.0783 58.4946C85.8966 59.1985 85.5333 59.7208 84.8066 59.9025" stroke="black" stroke-width="0.75" stroke-linecap="round" stroke-linejoin="round"/>
<path d="M170.952 42.4404C170.066 42.5086 169.43 42.9627 168.817 43.5758C165.025 47.209 161.664 51.2737 158.031 55.0886C155.737 57.5183 153.444 59.948 151.082 62.3323C146.427 66.9874 141.84 71.7333 137.481 76.7062C134.665 79.908 131.985 83.246 129.942 87.0382C129.737 87.4015 129.556 87.7876 129.374 88.1736C128.942 89.1273 129.715 89.7631 130.509 89.6042C132.303 89.1954 133.756 88.0828 135.187 87.0382C140.092 83.4504 144.679 79.4539 148.812 74.9805C149.039 74.7307 149.516 74.7307 149.538 74.2765" stroke="black" stroke-width="0.75" stroke-linecap="round" stroke-linejoin="round"/>
<path d="M48.172 66.148C46.6506 64.1724 45.1973 62.106 42.9265 60.9025C41.6776 60.244 40.5195 59.154 39.0889 59.1086C37.3404 59.0632 35.7055 58.4274 33.9797 58.3365C33.4574 58.3138 32.8443 58.4047 32.4356 58.1549C31.7544 57.7688 31.2094 57.8824 30.7098 58.3365C30.0513 58.9496 29.3474 58.9042 28.5753 58.609C26.8268 57.9505 25.0329 58.2911 23.3298 58.6544C19.6739 59.4038 15.9726 59.9942 12.3848 61.175C8.13844 62.5602 4.34627 64.5811 2.32529 68.8502C0.962834 71.7113 0.53139 74.686 1.59865 77.797C2.37071 79.9996 5.52706 81.2258 7.4118 79.9088C10.114 78.024 12.7027 75.9576 15.087 73.6869C18.97 69.9401 22.9211 66.2615 26.3272 62.0606C27.0993 61.1069 28.0303 60.2667 29.3019 59.9261" stroke="black" stroke-width="0.75" stroke-linecap="round" stroke-linejoin="round"/>
<path d="M162.575 17.168C161.371 17.7357 161.394 19.0754 160.94 20.0291C158.283 25.706 154.9 30.9515 151.471 36.1515C147.701 41.8512 144 47.5962 140.321 53.3639C139.231 55.0897 138.051 56.7474 136.779 58.3369C136.257 58.9954 135.689 59.336 134.917 59.4496" stroke="black" stroke-width="0.75" stroke-linecap="round" stroke-linejoin="round"/>
<path d="M73.0147 1C71.675 4.13365 69.5859 6.74503 67.4741 9.37912C62.0015 16.2141 56.529 23.0264 51.556 30.2247C50.625 31.5645 49.5578 32.9269 47.7412 33.4492C47.2643 33.4038 46.8783 32.4501 46.0381 32.9496" stroke="black" stroke-width="0.75" stroke-linecap="round" stroke-linejoin="round"/>
<path d="M251 66.7157C247.821 66.534 244.664 66.3296 241.485 66.148C234.673 65.7392 228.042 64.3314 221.616 62.0152C220.753 61.6973 220.004 61.0388 219.187 60.5392" stroke="black" stroke-width="0.75" stroke-linecap="round" stroke-linejoin="round"/>
<path d="M74.2747 52.0919C73.8887 53.7723 72.8441 55.0212 71.5498 56.043C69.6197 57.5872 69.1428 59.8352 70.1419 62.1741C70.5734 63.1732 71.7315 63.5139 72.9577 62.8553C74.252 62.1741 75.4555 61.3112 76.659 60.4483C77.749 59.6536 78.7027 58.6998 79.8154 57.9278C80.542 57.4282 81.2005 56.7016 82.563 56.9968C83.5394 58.5636 85.0154 60.1758 84.97 62.7191C84.8792 66.9881 87.6268 70.644 91.6006 71.7567C93.1674 72.1882 94.9159 72.3017 96.5509 72.1882C99.2077 72.0065 101.91 71.9384 104.499 71.1209C105.589 70.7803 106.52 69.9628 107.768 70.0991" stroke="black" stroke-width="0.75" stroke-linecap="round" stroke-linejoin="round"/>
<path d="M169.953 36.4695C169.681 37.6276 168.75 38.2861 167.955 39.0127C163.663 42.9639 158.781 46.1884 154.399 50.0032C151.015 52.9552 147.132 55.3622 144.135 58.7457C143.999 58.9046 143.885 59.1317 143.771 59.3134" stroke="black" stroke-width="0.75" stroke-linecap="round" stroke-linejoin="round"/>
<path d="M149.95 23.571C148.133 27.1134 145.59 30.1563 143.274 33.358C140.208 37.6271 137.12 41.8734 134.054 46.1424C133.805 46.5058 133.509 46.8691 133.35 47.2778C132.964 48.2769 132.896 49.2307 134.054 49.8211C134.645 50.1163 134.736 51.0927 135.621 50.9564" stroke="black" stroke-width="0.75" stroke-linecap="round" stroke-linejoin="round"/>
<path d="M132.918 48.8217C131.737 49.2985 130.806 50.0706 130.08 51.0924C127.241 55.0663 124.358 59.0174 121.587 63.0139C120.225 64.9895 118.976 67.0559 117.772 69.1223C117.523 69.5764 117.137 69.8262 116.887 70.2349" stroke="black" stroke-width="0.75" stroke-linecap="round" stroke-linejoin="round"/>
<path d="M178.742 60.7437C178.492 59.9943 178.288 59.2677 178.311 58.4729C178.333 56.4973 177.084 55.589 175.2 56.2021C172.089 57.224 169.318 58.927 166.548 60.6074C165.458 61.2659 164.391 61.7882 163.006 61.8109C161.779 61.8109 160.667 62.6284 159.895 63.6048C156.579 67.8511 152.969 71.8931 150.766 76.9342C150.221 78.1604 149.427 79.2958 148.813 80.4993C148.473 81.2032 148.337 81.9753 148.518 82.7701" stroke="black" stroke-width="0.75" stroke-linecap="round" stroke-linejoin="round"/>
<path d="M216.776 57.2013C213.619 57.7917 210.758 59.3358 207.693 60.1533C206.126 60.562 204.468 60.8345 203.151 59.3358C201.857 57.8371 200.267 58.314 198.61 58.5865C195.204 59.1542 191.934 60.2441 188.686 61.2887C187.528 61.6747 186.348 61.9699 185.144 62.1288C184.236 62.2651 183.396 62.1289 182.533 61.3568C181.352 60.2895 179.308 59.8354 178.059 61.5839C176.992 63.0826 175.652 64.2861 174.222 65.4215" stroke="black" stroke-width="0.75" stroke-linecap="round" stroke-linejoin="round"/>
<path d="M47.9007 33.63C47.719 35.6964 46.3793 37.2632 45.471 39.0117C44.7898 40.3061 44.1767 41.5096 44.2675 43.1445C44.381 45.3471 43.1775 47.3681 42.3373 49.3891C41.1565 52.2049 39.8849 54.9752 38.6814 57.7682C38.5452 58.0634 38.5679 58.4267 38.5225 58.7673" stroke="black" stroke-width="0.75" stroke-linecap="round" stroke-linejoin="round"/>
<path d="M162.008 67.851C160.328 69.5767 159.442 71.8475 157.898 73.6641C155.559 76.4117 153.583 79.6816 150.586 81.6572C147.384 83.769 145.522 86.9254 142.843 89.4232" stroke="black" stroke-width="0.75" stroke-linecap="round" stroke-linejoin="round"/>
<path d="M29.599 59.0405C29.6671 64.3087 27.2374 68.9865 26.0339 73.9367C25.8749 74.618 25.8976 75.2538 25.9204 75.935" stroke="black" stroke-width="0.75" stroke-linecap="round" stroke-linejoin="round"/>
<path d="M170.229 47.5507C168.299 50.3664 166.777 53.4773 164.711 56.225C164.279 56.7927 163.984 57.4739 163.553 58.0643C162.803 59.1315 162.417 60.2896 162.576 61.6067" stroke="black" stroke-width="0.75" stroke-linecap="round" stroke-linejoin="round"/>
<path d="M66.0655 57.4741C63.386 59.9492 60.5929 62.3108 57.2549 63.8322C55.0977 64.8086 53.8261 64.7632 52.7134 63.4689C52.4863 63.2191 52.4863 63.0147 52.4409 62.7422C51.8051 59.0182 53.3492 56.0662 55.8698 53.523C56.8008 52.5692 57.6183 51.4112 59.1397 51.2522" stroke="black" stroke-width="0.75" stroke-linecap="round" stroke-linejoin="round"/>
<path d="M182.143 31.9271C181.394 32.0634 180.622 32.1769 179.872 32.3132C179.532 34.2206 178.305 35.4468 176.875 36.4686C174.763 37.9674 172.924 39.7613 171.539 41.9185C170.539 43.4626 170.562 45.4609 170.244 47.2775C170.221 47.4591 170.585 47.4364 170.789 47.3456" stroke="black" stroke-width="0.75" stroke-linecap="round" stroke-linejoin="round"/>
<path d="M43.9239 41.5789C42.2435 42.0103 41.5396 43.5317 40.5177 44.7125C39.1326 46.3475 38.1107 48.3003 36.4076 49.6855C35.9308 50.0715 35.4993 50.4575 34.8408 50.3894" stroke="black" stroke-width="0.75" stroke-linecap="round" stroke-linejoin="round"/>
<path d="M47.3339 67.9879C46.857 68.0787 46.2893 68.0333 45.926 68.2831C43.3827 70.077 40.4989 70.2587 37.5469 70.0997" stroke="black" stroke-width="0.75" stroke-linecap="round" stroke-linejoin="round"/>
<path d="M95.5863 58.6098C93.3382 58.4509 91.3173 59.3592 89.2054 59.9042C88.0701 60.1994 86.9574 60.4264 85.9355 59.609" stroke="black" stroke-width="0.75" stroke-linecap="round" stroke-linejoin="round"/>
<path d="M38.1018 40.7375C37.1481 43.0537 35.7629 45.1655 34.9682 47.5498C34.9228 47.6861 34.8319 47.845 34.8319 47.9813C34.9682 50.8651 33.0607 52.9543 31.9481 55.3386C31.5847 56.1333 31.3804 56.9054 31.4031 57.7683" stroke="black" stroke-width="0.75" stroke-linecap="round" stroke-linejoin="round"/>
<path d="M134.756 53.5012C134.529 55.2951 134.211 57.1117 134.756 58.8829C134.938 59.4733 134.665 59.8594 134.461 60.3135C133.121 63.2655 131.441 66.0585 130.691 69.2603" stroke="black" stroke-width="0.75" stroke-linecap="round" stroke-linejoin="round"/>
<path d="M59.5168 49.8213C59.4032 50.5933 59.3351 51.2746 59.5849 52.1148C60.0163 53.5226 59.108 54.7488 58.3587 55.9296C57.5412 57.224 56.6556 58.4956 55.8154 59.7672" stroke="black" stroke-width="0.75" stroke-linecap="round" stroke-linejoin="round"/>
<path d="M52.3039 63.4457C50.8734 64.195 49.8742 65.4894 48.3755 66.216C47.717 66.5339 47.4445 67.692 47.6262 68.6911C48.1257 71.4161 46.2183 74.8222 43.6523 75.9349" stroke="black" stroke-width="0.75" stroke-linecap="round" stroke-linejoin="round"/>
<path d="M69.3343 59.7438C68.3125 59.88 67.881 60.811 67.3815 61.4696C66.178 63.0818 64.8836 64.6713 64.0889 66.5561" stroke="black" stroke-width="0.75" stroke-linecap="round" stroke-linejoin="round"/>
<path d="M186.128 56.7012C184.538 57.8138 183.357 59.3125 182.29 60.8794" stroke="black" stroke-width="0.75" stroke-linecap="round" stroke-linejoin="round"/>
<path d="M84.2216 59.7438C82.4958 60.2888 81.86 61.9237 80.8154 63.1499" stroke="black" stroke-width="0.75" stroke-linecap="round" stroke-linejoin="round"/>
</svg>
