<svg width="24" height="24" viewBox="0 0 24 24" fill="none" xmlns="http://www.w3.org/2000/svg">
<path d="M21 5H3M10 12H3M10 19H3M15 12.003C14.9995 11.8255 15.0462 11.6511 15.1353 11.4977C15.2245 11.3442 15.3528 11.2172 15.5073 11.1298C15.6617 11.0424 15.8366 10.9976 16.0141 11.0001C16.1915 11.0026 16.3651 11.0522 16.517 11.144L21.514 14.141C21.6628 14.2297 21.786 14.3554 21.8715 14.506C21.957 14.6566 22.002 14.8268 22.002 15C22.002 15.1732 21.957 15.3434 21.8715 15.494C21.786 15.6446 21.6628 15.7703 21.514 15.859L16.517 18.856C16.365 18.9478 16.1913 18.9975 16.0138 18.9999C15.8363 19.0024 15.6613 18.9575 15.5068 18.87C15.3524 18.7824 15.224 18.6553 15.1349 18.5017C15.0459 18.3481 14.9993 18.1736 15 17.996V12.003Z" stroke="black" stroke-width="2" stroke-linecap="round" stroke-linejoin="round"/>
</svg>
