<svg width="24" height="21" viewBox="0 0 24 21" fill="none" xmlns="http://www.w3.org/2000/svg">
<g clip-path="url(#clip0_991_1810)">
<path d="M20.5857 15.0917C20.6597 14.9582 20.8204 14.9148 20.949 14.9872C21.0774 15.0598 21.1284 15.2277 21.0525 15.3651C19.5142 18.1445 16.7288 20.035 13.6053 20.4227L13.6033 20.4237C13.1951 20.4756 12.7863 20.4999 12.3836 20.4999C8.88581 20.4999 5.61451 18.6354 3.82206 15.5243C3.75441 15.4067 3.78079 15.2627 3.8748 15.1776L3.91972 15.1454C4.0461 15.0731 4.20585 15.1133 4.283 15.243V15.244C6.17178 18.5215 9.80644 20.3414 13.5408 19.8768C16.4992 19.5081 19.1315 17.7197 20.5857 15.0927V15.0917Z" fill="black" stroke="black"/>
<path d="M11.18 0.574402C14.8883 0.114402 18.5642 1.82115 20.6351 4.94647L20.8304 5.25311C20.9106 5.38469 20.8697 5.55332 20.7455 5.633C20.6184 5.71126 20.4528 5.6718 20.3753 5.5451C18.4581 2.40838 14.8773 0.667254 11.2445 1.12225C8.33416 1.48549 5.80903 3.15425 4.31772 5.70038L4.31674 5.70135C4.26738 5.78593 4.17887 5.83417 4.08627 5.83417C4.04418 5.8341 3.99729 5.82225 3.95151 5.7951C3.82451 5.71971 3.77892 5.55007 3.85678 5.41815L3.85776 5.4162C5.38708 2.80389 7.93844 1.06876 10.8929 0.614441L11.18 0.574402Z" fill="black" stroke="black"/>
<path d="M1.46602 8.36682V8.3678C1.92465 8.4371 2.24759 8.86925 2.17891 9.34045C2.11018 9.80968 1.67725 10.1292 1.21993 10.0612C0.791733 9.99728 0.480766 9.61298 0.501179 9.17542L0.509968 9.08752C0.578505 8.61961 1.00838 8.3003 1.46602 8.36682Z" fill="black" stroke="black"/>
<path d="M9.56331 13.384H9.56136L9.55941 13.383C9.56143 13.3835 9.56297 13.3839 9.56331 13.384ZM15.0448 7.62323L15.0565 7.63495L15.0643 7.64374C15.0653 7.64492 15.0665 7.64667 15.0682 7.64862C15.071 7.65182 15.0761 7.65695 15.0809 7.66229L15.0877 7.66913L15.2576 7.8537L15.0731 8.03241L15.0701 8.03632L14.0194 9.04999L14.0106 9.04706L13.7918 9.26776L13.786 9.27362L13.7254 9.33319L11.241 11.7326L10.1883 12.7492L11.6424 12.59L12.6873 12.4758L13.1326 12.4269V12.424L23.2088 11.3195C23.2616 11.3138 23.3125 11.3237 23.3573 11.3469L23.4002 11.3752C23.4418 11.4092 23.4716 11.4519 23.4871 11.5021L23.4979 11.5558C23.514 11.7079 23.404 11.8363 23.2684 11.8517L17.9793 12.4308H17.9784L12.4373 13.0383L12.4364 13.0392H12.4285L9.42659 13.3683H9.41097L9.3846 13.3713L9.34359 13.3752L9.25374 13.2824L9.23226 13.2599L9.22835 13.257L9.0721 13.0959L9.24984 12.925L9.26546 12.9103L9.27913 12.8947C9.28271 12.8906 9.28474 12.8849 9.28792 12.881L10.3836 11.8254L10.4422 11.7668L10.4432 11.7678L12.6766 9.61151L12.6776 9.61053L13.0868 9.21307L14.1375 8.19452L12.6834 8.3576L9.70101 8.69159L9.25667 8.74042L5.2596 9.18378C5.20685 9.18933 5.15587 9.17975 5.11116 9.15643L5.06917 9.12811C5.02756 9.09414 4.99786 9.05139 4.98226 9.00116L4.97152 8.94745C4.95547 8.79665 5.06348 8.66663 5.20198 8.65057L9.57503 8.16718L10.0203 8.11737V8.11346L11.7889 7.91815H11.7899L12.075 7.88593L14.8368 7.57733H14.8397L14.8543 7.57538C14.8627 7.5749 14.8715 7.57539 14.8807 7.5744L14.8817 7.57538L14.9891 7.56268L15.0448 7.62323ZM15.0135 8.10468C15.0212 8.09395 15.0293 8.08079 15.0399 8.06854C15.0446 8.06305 15.0504 8.05834 15.0555 8.05292C15.0391 8.07076 15.0249 8.08878 15.0135 8.10468Z" fill="black" stroke="black"/>
</g>
<defs>
<clipPath id="clip0_991_1810">
<rect width="24" height="21" fill="white"/>
</clipPath>
</defs>
</svg>
