<svg width="24" height="24" viewBox="0 0 24 24" fill="none" xmlns="http://www.w3.org/2000/svg">
<path d="M17 10H16C15.2089 10 14.4355 9.76541 13.7777 9.32588C13.1199 8.88635 12.6072 8.26164 12.3045 7.53074C12.0017 6.79983 11.9225 5.99556 12.0769 5.21964C12.2312 4.44372 12.6122 3.73098 13.1716 3.17157C13.731 2.61216 14.4437 2.2312 15.2196 2.07686C15.9956 1.92252 16.7998 2.00173 17.5307 2.30448C18.2616 2.60723 18.8864 3.11992 19.3259 3.77772C19.7654 4.43552 20 5.20888 20 6V6.534M17 10C18.1046 10 19 9.10457 19 8C19 6.89543 18.1046 6 17 6M17 10C15.8954 10 15 9.10457 15 8C15 6.89543 15.8954 6 17 6M17 6H18C18.9359 5.99967 19.8423 6.32753 20.5614 6.92651C21.2805 7.52548 21.7669 8.35766 21.9357 9.2782C22.1046 10.1987 21.9454 11.1494 21.4857 11.9646C21.026 12.7798 20.2951 13.4081 19.42 13.74L17.13 14.61C15.7396 15.1392 14.2022 15.1329 12.8162 14.5925C11.4301 14.052 10.2943 13.016 9.62905 11.6853C8.96383 10.3546 8.81669 8.82424 9.21619 7.3912C9.61568 5.95816 10.5333 4.72463 11.791 3.93L13.86 2.62M9.77 12C4 15 2 22 2 22M4.5 17C7.3 16.5 8.9 17 10 17.8C11.1 18.6 11.8 20 12.3 21.5C10.3 21.9 8.8 21.9 7.5 21.2C6.3 20.6 5.2 19.3 4.5 17Z" stroke="black" stroke-width="2" stroke-linecap="round" stroke-linejoin="round"/>
</svg>
